<svg width="24" height="24" viewBox="0 0 24 24" fill="none" xmlns="http://www.w3.org/2000/svg">
<g clip-path="url(#clip0_54_275)">
<mask id="mask0_54_275" style="mask-type:luminance" maskUnits="userSpaceOnUse" x="0" y="0" width="24" height="24">
<path d="M0 0H24V24H0V0Z" fill="white"/>
</mask>
<g mask="url(#mask0_54_275)">
<path d="M2.19287 4.7823C1.57977 6.15956 1.26303 7.65032 1.26318 9.15788C1.26318 15.2621 6.35308 20.2105 12.6316 20.2105C17.5238 20.2105 21.6821 17.1998 23.2851 12.9846L2.19287 4.7823Z" fill="#5C913B"/>
<path d="M3.36763 5.23896C2.81305 6.47103 2.52632 7.80678 2.52637 9.15791C2.52637 14.5832 7.051 18.9821 12.6316 18.9821C16.9927 18.9821 20.6969 16.2916 22.1135 12.5286L3.36763 5.23896Z" fill="#FFE8B6"/>
<path d="M4.54127 5.69621C4.04601 6.78308 3.78951 7.9635 3.78906 9.15789C3.78906 13.9061 7.7478 17.7549 12.6312 17.7549C16.4604 17.7549 19.7112 15.3846 20.9402 12.0739L4.54127 5.69621Z" fill="#DD2E44"/>
<path d="M6.89434 9.64864C6.70045 9.93917 6.42634 10.0958 6.28108 9.99917C6.13582 9.9019 6.17497 9.58864 6.36887 9.29812C6.56276 9.00759 6.83687 8.85096 6.98213 8.94822C7.1274 9.04485 7.08824 9.35812 6.89434 9.64864Z" fill="black"/>
<path d="M10.6839 10.2802C10.49 10.5707 10.2159 10.7273 10.0706 10.6307C9.92537 10.5334 9.96453 10.2202 10.1584 9.92965C10.3523 9.63912 10.6264 9.48249 10.7717 9.57975C10.9169 9.67638 10.8778 9.98965 10.6839 10.2802Z" fill="black"/>
<path d="M13.8934 13.2347C13.925 13.5827 13.8101 13.8764 13.637 13.8922C13.4627 13.908 13.2972 13.6396 13.2656 13.2916C13.2334 12.9436 13.349 12.6499 13.5221 12.6347C13.6964 12.6177 13.8619 12.8861 13.8934 13.2347Z" fill="black"/>
<path d="M8.20918 11.9716C8.24076 12.3196 8.12581 12.6132 7.95276 12.629C7.77845 12.6448 7.61297 12.3764 7.58139 12.0284C7.54981 11.6804 7.66476 11.3867 7.83781 11.3716C8.01213 11.3545 8.1776 11.6229 8.20918 11.9716Z" fill="black"/>
<path d="M10.6737 15.3473C10.4634 15.6258 10.1811 15.7661 10.0421 15.6612C9.90194 15.5564 9.96067 15.2456 10.171 14.9671C10.3819 14.6886 10.6643 14.5484 10.8026 14.6532C10.9428 14.7581 10.8847 15.0688 10.6737 15.3473Z" fill="black"/>
<path d="M15.7491 15.6347C15.9209 15.9385 15.9379 16.2531 15.787 16.3389C15.6342 16.4255 15.3721 16.2493 15.2003 15.9448C15.0272 15.6417 15.0114 15.3272 15.163 15.2406C15.3152 15.1535 15.5767 15.3303 15.7491 15.6347Z" fill="black"/>
<path d="M11.3166 12.4591C11.508 12.7515 11.5452 13.0642 11.3993 13.1595C11.2534 13.2562 10.9806 13.097 10.7892 12.8046C10.5979 12.5128 10.5612 12.1995 10.7065 12.1042C10.8524 12.0075 11.1252 12.1661 11.3166 12.4591Z" fill="black"/>
<path d="M16.9895 13.4526C16.7792 13.7311 16.4968 13.8713 16.3573 13.7665C16.2177 13.6617 16.2758 13.3509 16.4867 13.0724C16.6971 12.7932 16.9794 12.6537 17.1183 12.7585C17.2585 12.8633 17.2011 13.1741 16.9895 13.4526Z" fill="black"/>
</g>
</g>
<defs>
<clipPath id="clip0_54_275">
<rect width="24" height="24" fill="white"/>
</clipPath>
</defs>
</svg>
